# xmcd
#
# Track frame offsets: 
#        150
#        26738
#        68938
#        100925
#        119417
#        141076
#        173911
#        196958
#        227849
#
# Disc length: 3671 seconds
#
# Revision: 0
# Processed by: cddbd v1.5.2PL0 Copyright (c) Steve Scherf et al.
# Submitted via: ExactAudioCopy v0.95a5
#
DISCID=7e0e5509
DTITLE=Dennis Dullea - Gwitar Player
DYEAR=2005
DGENRE=Blues
TTITLE0=Hideaway
TTITLE1=Personal Manager
TTITLE2=Chitlins' Con Carne
TTITLE3=Big Legs
TTITLE4=Ain't No Sunshine
TTITLE5=Tin Pan Alley
TTITLE6=Insurance
TTITLE7=Red House
TTITLE8=VooDoo Chile' (Slight Return)
EXTD=
EXTT0=
EXTT1=
EXTT2=
EXTT3=
EXTT4=
EXTT5=
EXTT6=
EXTT7=
EXTT8=
PLAYORDER=
